<?xml version="1.0" encoding="UTF-8"?>
<svg version="1.1" xmlns="http://www.w3.org/2000/svg" width="200" height="200">
<path d="M0 0 C-1.13077136 3.91420857 -2.08812937 6.20945732 -5 9 C-6.19027984 11.59915538 -6.19027984 11.59915538 -7 14 C-7.66 14 -8.32 14 -9 14 C-10.07525194 16.65228812 -11.09456151 19.28368454 -12 22 C-12.66 22 -13.32 22 -14 22 C-14.22429687 22.81984375 -14.44859375 23.6396875 -14.6796875 24.484375 C-16.30639055 28.81583283 -18.60245277 32.39198659 -21.125 36.25 C-22.04828828 37.66926958 -22.96776332 39.09102949 -23.8828125 40.515625 C-24.28902832 41.13727539 -24.69524414 41.75892578 -25.11376953 42.39941406 C-26.16146538 43.98669005 -26.16146538 43.98669005 -26 46 C-26.66 46 -27.32 46 -28 46 C-28.3403125 46.9590625 -28.3403125 46.9590625 -28.6875 47.9375 C-31.81424113 55.23322931 -36.13282622 61.83056439 -40.4296875 68.48046875 C-42.12368055 71.11092025 -42.12368055 71.11092025 -43.75 74.5 C-44.93569143 76.87138286 -45.919985 78.37216217 -48 80 C-48.66 80 -49.32 80 -50 80 C-52 77 -52 77 -52 74 C-52.66 74 -53.32 74 -54 74 C-54.35046387 73.34733154 -54.70092773 72.69466309 -55.06201172 72.0222168 C-59.50799853 63.7999772 -64.2119804 55.7448421 -68.96484375 47.69726562 C-72.18483191 42.21486748 -75.24167535 36.72935594 -78 31 C-74.35620011 29.17810006 -70.07417515 29.77239595 -66.0625 29.75 C-64.68288086 29.7190625 -64.68288086 29.7190625 -63.27539062 29.6875 C-62.39173828 29.68234375 -61.50808594 29.6771875 -60.59765625 29.671875 C-59.78820557 29.6625293 -58.97875488 29.65318359 -58.14477539 29.64355469 C-55.49422282 30.08405631 -54.60257027 30.87958691 -53 33 C-53 33.66 -53 34.32 -53 35 C-52.34 35 -51.68 35 -51 35 C-50.505 37.475 -50.505 37.475 -50 40 C-44.42351844 34.74689927 -44.42351844 34.74689927 -37 21 C-56.14 21 -75.28 21 -95 21 C-87.41583071 34.50016276 -87.41583071 34.50016276 -79.625 47.875 C-79.07465088 48.80497803 -78.52430176 49.73495605 -77.95727539 50.69311523 C-74.07428138 57.23745576 -70.1139941 63.73103298 -66.11401367 70.2043457 C-61.84952294 77.14986449 -57.84018436 84.23736635 -53.88256836 91.36157227 C-53.16532593 92.63859009 -53.16532593 92.63859009 -52.43359375 93.94140625 C-52.01134521 94.70138916 -51.58909668 95.46137207 -51.15405273 96.24438477 C-50.10848081 98.15482338 -50.10848081 98.15482338 -48 99 C-47.01719585 97.39805929 -46.03888283 95.79336258 -45.0625 94.1875 C-44.51722656 93.29417969 -43.97195312 92.40085937 -43.41015625 91.48046875 C-41.88990422 88.99296438 -41.88990422 88.99296438 -41 86 C-40.34 86 -39.68 86 -39 86 C-38.72800781 85.28457031 -38.45601562 84.56914063 -38.17578125 83.83203125 C-35.28692365 76.87381942 -31.3118061 70.40456967 -27.265625 64.06640625 C-25.83664723 61.73329131 -24.54265571 59.34880008 -23.25 56.9375 C-20.79434157 52.37427904 -18.18550138 47.92968149 -15.5 43.5 C-12.35099057 38.30211167 -9.34471118 33.05897145 -6.4765625 27.69921875 C-4.25995302 23.64716279 -1.88700779 19.68954905 0.484375 15.7265625 C1.8899906 13.19790352 2.94074847 10.68562446 4 8 C4.97753644 6.97803008 5.9805881 5.98020375 7 5 C7.47179687 3.98550781 7.94359375 2.97101562 8.4296875 1.92578125 C11 -1 11 -1 13.29248047 -1.48901367 C16.1324025 -1.59126735 18.91215581 -1.5223714 21.75 -1.375 C23.22533203 -1.33439453 23.22533203 -1.33439453 24.73046875 -1.29296875 C27.15587423 -1.22232587 29.57681945 -1.12376119 32 -1 C33 2 33 2 32.02246094 4.29052734 C31.51489258 5.1717627 31.00732422 6.05299805 30.484375 6.9609375 C29.64616211 8.43191895 29.64616211 8.43191895 28.79101562 9.93261719 C27.90446289 11.45097168 27.90446289 11.45097168 27 13 C26.45537109 13.9477832 25.91074219 14.89556641 25.34960938 15.87207031 C23.66235157 18.79725096 21.95842094 21.71213397 20.25 24.625 C19.33963989 26.18226807 19.33963989 26.18226807 18.41088867 27.77099609 C15.60844753 32.5617779 12.79769751 37.3475098 9.97265625 42.125 C9.29251465 43.27621338 9.29251465 43.27621338 8.59863281 44.45068359 C7.77054952 45.8506285 6.94061606 47.24948151 6.10839844 48.64697266 C3.90977449 52.36086446 1.88217794 56.11614075 0 60 C-0.66 60 -1.32 60 -2 60 C-2.14163574 60.79821167 -2.14163574 60.79821167 -2.28613281 61.61254883 C-3.2313479 64.77371789 -4.76976237 67.3429136 -6.421875 70.19921875 C-6.7637384 70.79370316 -7.10560181 71.38818756 -7.45782471 72.00068665 C-8.55066553 73.89895929 -9.65010101 75.79330992 -10.75 77.6875 C-11.83147582 79.56001056 -12.91157706 81.43330913 -13.99157715 83.30667114 C-14.69028486 84.51833701 -15.38957693 85.72966611 -16.08947754 86.94064331 C-18.77899703 91.59841384 -21.4138555 96.28413565 -24 101 C-24.66 101 -25.32 101 -26 101 C-26.21785156 101.7940625 -26.43570313 102.588125 -26.66015625 103.40625 C-28.41161268 108.10403401 -30.87501919 112.20358498 -33.4375 116.5 C-36.45465504 121.5986352 -39.43992023 126.65420631 -42 132 C-42.66 132 -43.32 132 -44 132 C-44.268125 132.763125 -44.53625 133.52625 -44.8125 134.3125 C-45.9612484 136.91229902 -46.9685876 138.10215992 -49 140 C-59.19874477 125.00784519 -59.19874477 125.00784519 -60 120 C-60.66 120 -61.32 120 -62 120 C-62.25652344 119.5359375 -62.51304688 119.071875 -62.77734375 118.59375 C-63.6270947 117.06019273 -64.47895668 115.52780467 -65.33203125 113.99609375 C-66.20414041 112.42956513 -67.07581121 110.86278602 -67.94287109 109.29345703 C-72.79036407 100.52281108 -77.81855354 91.89287913 -83.10595703 83.37915039 C-92 69.01502348 -92 69.01502348 -92 66 C-92.66 66 -93.32 66 -94 66 C-94.35191406 65.34515625 -94.70382813 64.6903125 -95.06640625 64.015625 C-98.22788339 58.17143227 -101.49130389 52.40301928 -104.859375 46.67578125 C-108.29868566 40.80000844 -111.64234344 34.86820041 -115.00048828 28.94580078 C-115.50306152 28.06263184 -116.00563477 27.17946289 -116.5234375 26.26953125 C-116.97638184 25.47135986 -117.42932617 24.67318848 -117.89599609 23.85083008 C-118.86676581 22.05155365 -118.86676581 22.05155365 -120 21 C-122.01964199 20.92755947 -124.04167124 20.91622812 -126.0625 20.9375 C-127.16722656 20.94652344 -128.27195313 20.95554687 -129.41015625 20.96484375 C-130.69212891 20.98224609 -130.69212891 20.98224609 -132 21 C-131.4225 21.66 -130.845 22.32 -130.25 23 C-128.0892978 25.88093627 -126.60828602 28.61823442 -125.0546875 31.83984375 C-122.25390183 37.57626774 -119.0237982 43.0153246 -115.5625 48.375 C-113.18897897 52.05344385 -110.99809785 55.7627276 -108.9375 59.625 C-106.70949206 63.79734378 -104.25013043 67.67735788 -101.57714844 71.57446289 C-100.001907 73.99706718 -98.62227436 76.45517202 -97.26171875 79.00390625 C-93.90119835 85.22143997 -90.37555652 91.33429219 -86.8125 97.4375 C-85.88920898 99.02981445 -85.88920898 99.02981445 -84.94726562 100.65429688 C-84.35236328 101.67458984 -83.75746094 102.69488281 -83.14453125 103.74609375 C-82.61190674 104.66060303 -82.07928223 105.5751123 -81.53051758 106.51733398 C-80.06298862 109.00656998 -80.06298862 109.00656998 -78.3034668 111.14086914 C-77 113 -77 113 -77 116 C-76.34 116 -75.68 116 -75 116 C-74.63261719 116.78697266 -74.63261719 116.78697266 -74.2578125 117.58984375 C-70.72636506 124.90846413 -66.64371686 131.86911465 -62.5 138.8515625 C-61.89478516 139.88071777 -61.89478516 139.88071777 -61.27734375 140.93066406 C-60.40164253 142.34932683 -59.473468 143.73652616 -58.50390625 145.09277344 C-54.89291241 150.24259867 -54.89291241 150.24259867 -55.4296875 154.0390625 C-56.20699219 155.50472656 -56.20699219 155.50472656 -57 157 C-57.3084082 157.58620117 -57.61681641 158.17240234 -57.93457031 158.77636719 C-58.95673329 160.66959079 -60.03062953 162.52269098 -61.125 164.375 C-61.49753906 165.01566406 -61.87007813 165.65632812 -62.25390625 166.31640625 C-63.16434002 167.88048477 -64.08148191 169.44065534 -65 171 C-66.80664062 170.79370117 -66.80664062 170.79370117 -69 170 C-70.58398437 167.9621582 -70.58398437 167.9621582 -72.09375 165.30078125 C-72.92712891 163.85735352 -72.92712891 163.85735352 -73.77734375 162.38476562 C-74.34582031 161.37091797 -74.91429688 160.35707031 -75.5 159.3125 C-76.6340113 157.32862309 -77.76939234 155.34552842 -78.90625 153.36328125 C-79.44080811 152.42613281 -79.97536621 151.48898438 -80.52612305 150.5234375 C-82.2387777 147.59118663 -84.08674365 144.80412959 -86 142 C-86.91773341 140.47126887 -87.81621396 138.9306716 -88.6875 137.375 C-89.10386719 136.64023438 -89.52023438 135.90546875 -89.94921875 135.1484375 C-91 133 -91 133 -91.51953125 130.7890625 C-91.67808594 130.19867188 -91.83664063 129.60828125 -92 129 C-92.66 128.67 -93.32 128.34 -94 128 C-95.03261823 126.25979379 -96.00319678 124.48240823 -96.9375 122.6875 C-98.75105532 119.21345157 -100.63146833 116.11442286 -103 113 C-103.90509182 111.15629443 -104.80920387 109.31209778 -105.70703125 107.46484375 C-108.50036653 102.13978464 -111.82151367 97.10165608 -115 92 C-118.60384096 86.11014052 -122.06760941 80.14844511 -125.4831543 74.14770508 C-133.5689405 59.96731107 -141.79252224 45.87156775 -150.36279297 31.97827148 C-153.32639811 27.15586019 -156.13073818 22.27451502 -158.78515625 17.2734375 C-159.93162334 15.1279589 -161.13937088 13.03251131 -162.375 10.9375 C-164 8 -164 8 -164 6 C-164.66 6 -165.32 6 -166 6 C-166.33 3.69 -166.66 1.38 -167 -1 C-145.81660854 -1.17722625 -124.63315489 -1.34290115 -103.44956589 -1.49477577 C-93.6139493 -1.56556186 -83.77838875 -1.64014624 -73.94287109 -1.72363281 C-65.37153555 -1.79637907 -56.80018023 -1.86203908 -48.22872567 -1.91914403 C-43.6890405 -1.94963714 -39.14944512 -1.9837095 -34.60985565 -2.02626419 C-30.33855411 -2.06619205 -26.0672904 -2.09665686 -21.79586601 -2.11981392 C-20.22688824 -2.12999731 -18.65792866 -2.1436603 -17.08901405 -2.16103554 C-14.94899114 -2.18421861 -12.80925515 -2.19494892 -10.66912842 -2.20254517 C-8.8716321 -2.21637206 -8.8716321 -2.21637206 -7.03782272 -2.23047829 C-4.11119812 -2.00843655 -2.46266242 -1.5358255 0 0 Z " fill="#39378A" transform="translate(167,14)"/>
<path d="M0 0 C-1.13077136 3.91420857 -2.08812937 6.20945732 -5 9 C-6.19027984 11.59915538 -6.19027984 11.59915538 -7 14 C-7.66 14 -8.32 14 -9 14 C-10.07525194 16.65228812 -11.09456151 19.28368454 -12 22 C-12.66 22 -13.32 22 -14 22 C-14.33 22.66 -14.66 23.32 -15 24 C-14.4462522 18.89545207 -11.97407204 15.03424443 -9.4375 10.6875 C-8.80038086 9.57665039 -8.80038086 9.57665039 -8.15039062 8.44335938 C-7.10648347 6.62531882 -6.05407808 4.81216252 -5 3 C-6.80848547 1.19151453 -9.58682213 1.86343577 -12.02243042 1.85523987 C-13.33207764 1.84834137 -14.64172485 1.84144287 -15.99105835 1.83433533 C-17.45611559 1.83162036 -18.92117297 1.82898323 -20.38623047 1.82641602 C-21.91843862 1.82011451 -23.45064492 1.81334916 -24.98284912 1.80615234 C-28.29009494 1.7914545 -31.59733356 1.77974115 -34.90459824 1.77020454 C-40.13110452 1.75479124 -45.35754953 1.73084255 -50.58401489 1.70530701 C-65.4487115 1.63399942 -80.31344334 1.57429402 -95.17822266 1.52319336 C-103.38194455 1.49491576 -111.58560565 1.45954792 -119.78926384 1.41653961 C-124.98764286 1.38971905 -130.18595305 1.37184342 -135.38438773 1.36050236 C-138.61641776 1.35139261 -141.84836405 1.33403843 -145.08034515 1.31432343 C-146.58197593 1.30683393 -148.08362816 1.30276603 -149.58527756 1.30232811 C-151.63141092 1.30124937 -153.6775245 1.28686173 -155.72360229 1.27174377 C-156.86993574 1.26751184 -158.01626919 1.2632799 -159.19734001 1.25891972 C-162 1 -162 1 -165 -1 C-144.07737725 -1.17722876 -123.15469153 -1.34290343 -102.23186874 -1.49477577 C-92.51731982 -1.5655609 -82.80282765 -1.64014475 -73.08837891 -1.72363281 C-64.62251937 -1.79638064 -56.15663982 -1.86204039 -47.69065976 -1.91914403 C-43.20686516 -1.94963629 -38.72316149 -1.98370793 -34.23946381 -2.02626419 C-30.02069227 -2.06619405 -25.80195905 -2.09665791 -21.58306313 -2.11981392 C-20.0334357 -2.12999675 -18.48382669 -2.14365932 -16.93426323 -2.16103554 C-14.82051392 -2.18422111 -12.70705513 -2.19494945 -10.59320068 -2.20254517 C-8.8178274 -2.21637206 -8.8178274 -2.21637206 -7.00658798 -2.23047829 C-4.09723026 -2.00745345 -2.45101904 -1.52399608 0 0 Z " fill="#191876" transform="translate(167,14)"/>
<path d="M0 0 C0.66 0.33 1.32 0.66 2 1 C2 1.66 2 2.32 2 3 C2.928125 3.2784375 2.928125 3.2784375 3.875 3.5625 C6 5 6 5 6.8671875 8.16796875 C8.06848852 12.23168012 9.8814102 15.3030837 12.25 18.75 C15.66732017 23.88146113 18.76702286 29.06645669 21.6484375 34.5234375 C23.31331254 37.57410448 25.17613631 40.46269289 27.1171875 43.34375 C28 45 28 45 28 48 C28.66 48 29.32 48 30 48 C30.33 48.99 30.66 49.98 31 51 C31.33773437 50.4946875 31.67546875 49.989375 32.0234375 49.46875 C32.69246094 48.49421875 32.69246094 48.49421875 33.375 47.5 C33.81585938 46.8503125 34.25671875 46.200625 34.7109375 45.53125 C35.13632813 45.0259375 35.56171875 44.520625 36 44 C36.66 44 37.32 44 38 44 C38 44.99 38 45.98 38 47 C37.34 47 36.68 47 36 47 C35.731875 47.763125 35.46375 48.52625 35.1875 49.3125 C34.0387516 51.91229902 33.0314124 53.10215992 31 55 C20.80125523 40.00784519 20.80125523 40.00784519 20 35 C19.34 35 18.68 35 18 35 C17.74347656 34.5359375 17.48695312 34.071875 17.22265625 33.59375 C14.33593009 28.38403546 11.42229056 23.18981407 8.5 18 C5.31491429 12.34347738 2.1405577 6.68141092 -1 1 C-0.67 0.67 -0.34 0.34 0 0 Z " fill="#1E1B60" transform="translate(87,99)"/>
<path d="M0 0 C20.46 0 40.92 0 62 0 C62.99 2.97 62.99 2.97 64 6 C62.02 6.66 60.04 7.32 58 8 C58.66 6.35 59.32 4.7 60 3 C40.86 3 21.72 3 2 3 C1.67 3.66 1.34 4.32 1 5 C0.34 4.67 -0.32 4.34 -1 4 C-0.67 2.68 -0.34 1.36 0 0 Z " fill="#33306E" transform="translate(70,32)"/>
<path d="M0 0 C2.29109597 -0.08075665 4.58299267 -0.13907731 6.875 -0.1875 C8.78925781 -0.23970703 8.78925781 -0.23970703 10.7421875 -0.29296875 C11.81726563 -0.19628906 12.89234375 -0.09960938 14 0 C14.66 0.99 15.32 1.98 16 3 C11.38 3 6.76 3 2 3 C3.32 4.65 4.64 6.3 6 8 C7.08984375 9.921875 7.08984375 9.921875 7.9375 11.75 C11.06655954 18.2385537 14.57663235 24.39500319 18.5 30.4375 C21.73588833 35.45064866 24.46046941 40.60496036 27 46 C25.515 45.505 25.515 45.505 24 45 C22.8125 42.4375 22.8125 42.4375 22 40 C21.34 40 20.68 40 20 40 C20 39.01 20 38.02 20 37 C19.34 37 18.68 37 18 37 C17.78085937 36.46632812 17.56171875 35.93265625 17.3359375 35.3828125 C15.04091098 29.99043311 12.33540427 25.09728884 9.171875 20.1640625 C8 18 8 18 8 15 C7.34 15 6.68 15 6 15 C4.23828125 12.734375 4.23828125 12.734375 2.3125 9.75 C1.34763672 8.28820312 1.34763672 8.28820312 0.36328125 6.796875 C-1 4 -1 4 -0.70703125 1.640625 C-0.47371094 1.09921875 -0.24039063 0.5578125 0 0 Z " fill="#2F2D66" transform="translate(33,32)"/>
<path d="M0 0 C2.83992203 -0.10225368 5.61967534 -0.03335773 8.45751953 0.11401367 C9.93285156 0.15461914 9.93285156 0.15461914 11.43798828 0.19604492 C13.86339376 0.2666878 16.28433898 0.36525249 18.70751953 0.48901367 C19.70751953 3.48901367 19.70751953 3.48901367 18.56298828 6.15307617 C18.01255859 7.13018555 17.46212891 8.10729492 16.89501953 9.11401367 C16.35232422 10.0962793 15.80962891 11.07854492 15.25048828 12.09057617 C13.70751953 14.48901367 13.70751953 14.48901367 11.70751953 15.48901367 C13.17223919 10.48455483 14.99793234 7.23079126 17.70751953 2.48901367 C11.43751953 2.81901367 5.16751953 3.14901367 -1.29248047 3.48901367 C-1.62248047 4.14901367 -1.95248047 4.80901367 -2.29248047 5.48901367 C-2.95248047 5.48901367 -3.61248047 5.48901367 -4.29248047 5.48901367 C-4.23060547 6.60276367 -4.23060547 6.60276367 -4.16748047 7.73901367 C-4.29873022 10.62650823 -4.889902 12.01387521 -6.29248047 14.48901367 C-6.62248047 15.47901367 -6.95248047 16.46901367 -7.29248047 17.48901367 C-10.35498047 18.67651367 -10.35498047 18.67651367 -13.29248047 19.48901367 C-12.6258138 17.82234701 -11.95914714 16.15568034 -11.29248047 14.48901367 C-10.98310547 13.62276367 -10.67373047 12.75651367 -10.35498047 11.86401367 C-9.25027691 9.3946763 -8.21657501 8.33910457 -6.29248047 6.48901367 C-5.82068359 5.47452148 -5.34888672 4.4600293 -4.86279297 3.41479492 C-2.29248047 0.48901367 -2.29248047 0.48901367 0 0 Z " fill="#1F1F54" transform="translate(180.29248046875,12.510986328125)"/>
<path d="M0 0 C3.60401481 -0.08701039 7.20776012 -0.14039388 10.8125 -0.1875 C12.34874023 -0.22520508 12.34874023 -0.22520508 13.91601562 -0.26367188 C15.39038086 -0.27817383 15.39038086 -0.27817383 16.89453125 -0.29296875 C18.25348511 -0.31653442 18.25348511 -0.31653442 19.63989258 -0.34057617 C22 0 22 0 23.8190918 1.39331055 C25 3 25 3 25 5 C25.66 5 26.32 5 27 5 C27.33 6.65 27.66 8.3 28 10 C28.61875 9.38125 29.2375 8.7625 29.875 8.125 C31.25 6.75 32.625 5.375 34 4 C34.495 6.475 34.495 6.475 35 9 C32.24075815 10.80411967 31.11027897 11.0127245 27.75 10.625 C26.38875 10.315625 26.38875 10.315625 25 10 C24.34 7.69 23.68 5.38 23 3 C17.39 3 11.78 3 6 3 C6.83462035 7.71058562 6.83462035 7.71058562 8 11 C7.34 11.66 6.68 12.32 6 13 C4.99759911 11.02204824 3.99813957 9.04260558 3 7.0625 C2.1646875 5.40927734 2.1646875 5.40927734 1.3125 3.72265625 C0 1 0 1 0 0 Z " fill="#343361" transform="translate(89,44)"/>
<path d="M0 0 C4.03128572 1.34376191 4.55188659 3.16470258 6.625 6.8125 C7.23601562 7.87082031 7.84703125 8.92914063 8.4765625 10.01953125 C9.71069732 12.43400528 10.5265992 14.35791173 11 17 C11.66 17 12.32 17 13 17 C13.24492188 17.52464844 13.48984375 18.04929688 13.7421875 18.58984375 C17.00362013 25.34888171 20.74414604 31.77083123 24.60888672 38.19702148 C25.24334717 39.25771851 25.24334717 39.25771851 25.890625 40.33984375 C26.27250977 40.97269287 26.65439453 41.60554199 27.04785156 42.25756836 C28 44 28 44 29 47 C28.34 47 27.68 47 27 47 C25.70837481 45.08990624 24.51630196 43.11235348 23.3671875 41.11328125 C23.01165802 40.5004277 22.65612854 39.88757416 22.28982544 39.25614929 C21.14449827 37.27890997 20.00940452 35.29602267 18.875 33.3125 C17.39609416 30.74443491 15.9129466 28.17883364 14.4296875 25.61328125 C14.06397644 24.97810577 13.69826538 24.3429303 13.32147217 23.68850708 C10.21411579 18.31172061 6.95325385 13.04143642 3.63330078 7.79370117 C2.14085552 5.24092821 1.00964191 2.77350091 0 0 Z " fill="#26235C" transform="translate(79,113)"/>
<path d="M0 0 C5.0806666 2.37097775 6.62329043 5.09093272 8.90234375 10.02734375 C9.90944314 12.04933541 9.90944314 12.04933541 11.53125 13.53125 C13.88592017 15.88592017 14.72881493 18.96020963 16 22 C16.66 22.66 17.32 23.32 18 24 C18 24.99 18 25.98 18 27 C13.99456236 25.50777813 12.72618867 23.36103209 10.6875 19.6875 C10.09195313 18.62402344 9.49640625 17.56054688 8.8828125 16.46484375 C7.95082031 14.74974609 7.95082031 14.74974609 7 13 C6.5045166 12.09145264 6.5045166 12.09145264 5.99902344 11.16455078 C3.97779594 7.45439265 1.98043768 3.73213179 0 0 Z " fill="#242270" transform="translate(53,44)"/>
<path d="M0 0 C0.66 0 1.32 0 2 0 C3.2400457 1.912712 4.39336867 3.88212578 5.5 5.875 C7.86771159 10.22617378 7.86771159 10.22617378 11 14 C11.66 14.66 12.32 15.32 13 16 C13 14.68 13 13.36 13 12 C14.98 11.34 16.96 10.68 19 10 C17.66511872 13.59391114 16.03977277 16.75490696 14 20 C11.46316878 19.63321705 10.29954849 19.35855208 8.62792969 17.35766602 C8.22993164 16.66342529 7.83193359 15.96918457 7.421875 15.25390625 C6.76445313 14.12178711 6.76445313 14.12178711 6.09375 12.96679688 C5.6503125 12.17337891 5.206875 11.37996094 4.75 10.5625 C4.29109375 9.77294922 3.8321875 8.98339844 3.359375 8.16992188 C0 2.30601283 0 2.30601283 0 0 Z " fill="#28245E" transform="translate(88,165)"/>
<path d="M0 0 C0.66 0 1.32 0 2 0 C2.33 0.66 2.66 1.32 3 2 C3.99 2 4.98 2 6 2 C6.48212214 3.56159059 6.96055873 5.12431928 7.4375 6.6875 C7.83775391 7.99267578 7.83775391 7.99267578 8.24609375 9.32421875 C8.96344529 11.87025921 9.517541 14.4003423 10 17 C10.66 17 11.32 17 12 17 C13.32 19.64 14.64 22.28 16 25 C15.34 25.33 14.68 25.66 14 26 C1.31698546 6.60024107 1.31698546 6.60024107 0 0 Z " fill="#232361" transform="translate(6,25)"/>
<path d="M0 0 C0.99 0.33 1.98 0.66 3 1 C3.28875 1.825 3.5775 2.65 3.875 3.5 C4.24625 4.325 4.6175 5.15 5 6 C7.54775306 6.89386164 7.54775306 6.89386164 10 7 C10 8.98 10 10.96 10 13 C10.99 13.33 11.98 13.66 13 14 C12.34 15.32 11.68 16.64 11 18 C5.59868851 13.3988828 2.34395282 6.60568521 0 0 Z " fill="#292566" transform="translate(77,147)"/>
<path d="M0 0 C0.66 0 1.32 0 2 0 C1.34 1.65 0.68 3.3 0 5 C-0.66 5 -1.32 5 -2 5 C-1.938125 6.11375 -1.938125 6.11375 -1.875 7.25 C-2.00624975 10.13749456 -2.59742154 11.52486153 -4 14 C-4.33 14.99 -4.66 15.98 -5 17 C-8.0625 18.1875 -8.0625 18.1875 -11 19 C-10.33333333 17.33333333 -9.66666667 15.66666667 -9 14 C-8.690625 13.13375 -8.38125 12.2675 -8.0625 11.375 C-6.95779644 8.90566263 -5.92409454 7.8500909 -4 6 C-2.9790625 4.4221875 -2.9790625 4.4221875 -1.9375 2.8125 C-1.298125 1.884375 -0.65875 0.95625 0 0 Z " fill="#312F74" transform="translate(178,13)"/>
<path d="M0 0 C0.66 0 1.32 0 2 0 C1.67 1.65 1.34 3.3 1 5 C0.34 5 -0.32 5 -1 5 C-1.226875 5.639375 -1.45375 6.27875 -1.6875 6.9375 C-4.43461009 13.34742354 -8.03670203 19.27523627 -12 25 C-12.9435441 22.46100862 -13.16906025 21.39090725 -12.07421875 18.859375 C-11.38779297 17.81523438 -11.38779297 17.81523438 -10.6875 16.75 C-10.23761719 16.04359375 -9.78773438 15.3371875 -9.32421875 14.609375 C-8.88722656 14.07828125 -8.45023438 13.5471875 -8 13 C-7.34 13 -6.68 13 -6 13 C-5.88785156 12.43796875 -5.77570313 11.8759375 -5.66015625 11.296875 C-4.90942661 8.68486892 -3.78832624 6.60528678 -2.4375 4.25 C-1.98246094 3.45078125 -1.52742187 2.6515625 -1.05859375 1.828125 C-0.70925781 1.22484375 -0.35992187 0.6215625 0 0 Z " fill="#23215B" transform="translate(140,55)"/>
<path d="M0 0 C3.59248836 1.43295884 4.92324381 3.00579252 6.796875 6.3515625 C7.28027344 7.20234375 7.76367188 8.053125 8.26171875 8.9296875 C8.75285156 9.81914063 9.24398437 10.70859375 9.75 11.625 C10.25660156 12.5221875 10.76320313 13.419375 11.28515625 14.34375 C12.53319926 16.55726025 13.77094617 18.77590724 15 21 C14.34 21.66 13.68 22.32 13 23 C10.30862276 19.15517537 8.12349911 15.31885872 6.08203125 11.09765625 C4.5537051 8.13480013 2.76824831 5.36016532 0.953125 2.56640625 C0 1 0 1 0 0 Z " fill="#211D65" transform="translate(55,110)"/>
<path d="M0 0 C4.06564732 1.35521577 5.1350785 4.04035171 7.1875 7.5625 C7.55552734 8.17802734 7.92355469 8.79355469 8.30273438 9.42773438 C9.209679 10.94716109 10.10588168 12.47299033 11 14 C12.32 13.34 13.64 12.68 15 12 C15 13.32 15 14.64 15 16 C13.35 16.66 11.7 17.32 10 18 C8 15 8 15 8 12 C7.34 12 6.68 12 6 12 C4.02 8.04 2.04 4.08 0 0 Z " fill="#26245D" transform="translate(107,76)"/>
<path d="M0 0 C1.32 0.66 2.64 1.32 4 2 C3.41800054 5.37559685 2.37247717 6.62752283 0 9 C-1.19027984 11.59915538 -1.19027984 11.59915538 -2 14 C-2.66 14 -3.32 14 -4 14 C-5.07525194 16.65228812 -6.09456151 19.28368454 -7 22 C-7.66 22 -8.32 22 -9 22 C-9.33 22.66 -9.66 23.32 -10 24 C-9.4528817 18.9267212 -6.99146552 15.16941675 -4.4375 10.875 C-3.5969594 9.45921842 -2.76205709 8.04006995 -1.93359375 6.6171875 C-1.3775647 5.68302002 -1.3775647 5.68302002 -0.81030273 4.72998047 C0.21208268 2.86559867 0.21208268 2.86559867 0 0 Z " fill="#23215E" transform="translate(162,14)"/>
<path d="M0 0 C0.6640625 1.73828125 0.6640625 1.73828125 1 4 C-0.0390625 6.04296875 -0.0390625 6.04296875 -1.625 8.1875 C-4.77929346 12.62414641 -7.43679561 17.20249797 -10 22 C-10.99 22 -11.98 22 -13 22 C-13.33 20.35 -13.66 18.7 -14 17 C-13.01 17.33 -12.02 17.66 -11 18 C-10.01719585 16.39805929 -9.03888283 14.79336258 -8.0625 13.1875 C-7.51722656 12.29417969 -6.97195312 11.40085937 -6.41015625 10.48046875 C-4.88990422 7.99296438 -4.88990422 7.99296438 -4 5 C-3.34 5 -2.68 5 -2 5 C-1.34 3.35 -0.68 1.7 0 0 Z " fill="#29265C" transform="translate(130,95)"/>
<path d="M0 0 C0.66 0.33 1.32 0.66 2 1 C2 1.66 2 2.32 2 3 C2.928125 3.2784375 2.928125 3.2784375 3.875 3.5625 C7.07066438 5.72427297 7.13076538 8.33679696 8 12 C8.64199649 13.67632417 9.29894157 15.34750513 10 17 C9.34 17.33 8.68 17.66 8 18 C1.66514806 6.47835991 1.66514806 6.47835991 -1 1 C-0.67 0.67 -0.34 0.34 0 0 Z " fill="#221F65" transform="translate(87,99)"/>
<path d="M0 0 C3.62272308 1.20757436 3.87798637 2.01854049 5.69921875 5.25390625 C6.18583984 6.10791016 6.67246094 6.96191406 7.17382812 7.84179688 C7.67333984 8.73962891 8.17285156 9.63746094 8.6875 10.5625 C9.19861328 11.46419922 9.70972656 12.36589844 10.23632812 13.29492188 C11.49912504 15.52546969 12.75321746 17.76047358 14 20 C13.34 20.33 12.68 20.66 12 21 C12 20.34 12 19.68 12 19 C11.01 18.67 10.02 18.34 9 18 C7.75390625 15.99609375 7.75390625 15.99609375 6.5625 13.4375 C6.13710937 12.54160156 5.71171875 11.64570312 5.2734375 10.72265625 C4.85320312 9.82417969 4.43296875 8.92570312 4 8 C3.23411184 6.45587064 2.46383433 4.91390388 1.6875 3.375 C1.130625 2.26125 0.57375 1.1475 0 0 Z " fill="#28265F" transform="translate(66,91)"/>
<path d="M0 0 C0.66 0 1.32 0 2 0 C1.67 1.32 1.34 2.64 1 4 C0.34 4 -0.32 4 -1 4 C-1.12689209 4.5887793 -1.25378418 5.17755859 -1.38452148 5.78417969 C-2.34418863 9.23913366 -4.25636978 12.18051444 -6.0625 15.25 C-6.43955078 15.8996875 -6.81660156 16.549375 -7.20507812 17.21875 C-8.13234115 18.81505091 -9.06558456 20.40787529 -10 22 C-10.66 21.67 -11.32 21.34 -12 21 C-10.66140851 17.39609983 -9.03586776 14.25738842 -7 11 C-6.484375 10.071875 -5.96875 9.14375 -5.4375 8.1875 C-4.963125 7.465625 -4.48875 6.74375 -4 6 C-3.34 6 -2.68 6 -2 6 C-2 5.01 -2 4.02 -2 3 C-1.34 3 -0.68 3 0 3 C0 2.01 0 1.02 0 0 Z " fill="#24215D" transform="translate(166,70)"/>
<path d="M0 0 C0.99 0 1.98 0 3 0 C3.84069415 1.60032137 4.67231505 3.20541171 5.5 4.8125 C5.9640625 5.70582031 6.428125 6.59914063 6.90625 7.51953125 C8 10 8 10 8 13 C9.32 13 10.64 13 12 13 C12 14.65 12 16.3 12 18 C11.34 18.33 10.68 18.66 10 19 C8.32626249 16.21251481 6.66223733 13.41935573 5 10.625 C4.28457031 9.43390625 4.28457031 9.43390625 3.5546875 8.21875 C3.10351562 7.45820312 2.65234375 6.69765625 2.1875 5.9140625 C1.76855469 5.2123291 1.34960938 4.5105957 0.91796875 3.78759766 C0 2 0 2 0 0 Z " fill="#292663" transform="translate(22,53)"/>
<path d="M0 0 C0.66 0.66 1.32 1.32 2 2 C0.73513885 4.27434653 -0.53654703 6.54438745 -1.8125 8.8125 C-2.16892578 9.45509766 -2.52535156 10.09769531 -2.89257812 10.75976562 C-4.6465286 13.86538435 -6.25964807 16.67459095 -9 19 C-9.33 18.34 -9.66 17.68 -10 17 C-9.19555664 15.21240234 -9.19555664 15.21240234 -7.91015625 13.0859375 C-7.45576172 12.32539063 -7.00136719 11.56484375 -6.53320312 10.78125 C-6.04787109 9.9871875 -5.56253906 9.193125 -5.0625 8.375 C-4.34030273 7.17230469 -4.34030273 7.17230469 -3.60351562 5.9453125 C-2.40943235 3.95911458 -1.20804799 1.97772458 0 0 Z " fill="#1F1D57" transform="translate(134,124)"/>
<path d="M0 0 C2 1 2 1 3.375 3.5625 C4.24435349 8.34394421 2.46843232 10.98114738 0 15 C-0.99 14.01 -1.98 13.02 -3 12 C-2.01 11.01 -1.02 10.02 0 9 C-0.88214887 6.11785113 -0.88214887 6.11785113 -2 4 C-1.34 4 -0.68 4 0 4 C0 2.68 0 1.36 0 0 Z " fill="#232056" transform="translate(108,160)"/>
<path d="M0 0 C4.0663464 1.3554488 4.13244789 3.26489579 6 7 C8.04946399 8.85315257 8.04946399 8.85315257 10 10 C9.34 11.32 8.68 12.64 8 14 C5.50447597 11.72402354 3.93377014 9.39278822 2.3125 6.4375 C1.87550781 5.65246094 1.43851562 4.86742188 0.98828125 4.05859375 C0 2 0 2 0 0 Z " fill="#25215E" transform="translate(76,82)"/>
<path d="M0 0 C3.24741424 2.78496601 5.16089095 6.39536751 7.25 10.0625 C7.62640625 10.69994141 8.0028125 11.33738281 8.390625 11.99414062 C9.32643643 13.6266499 10.17105723 15.31071511 11 17 C10.67 17.66 10.34 18.32 10 19 C5.36278409 13.08717454 1.12259391 7.6336386 0 0 Z " fill="#2E2A5C" transform="translate(74,41)"/>
<path d="M0 0 C0.66 0 1.32 0 2 0 C1.31238981 3.65564909 -0.25449545 6.51867272 -2.0625 9.75 C-2.61035156 10.73484375 -3.15820312 11.7196875 -3.72265625 12.734375 C-4.14417969 13.48203125 -4.56570312 14.2296875 -5 15 C-5.99 14.67 -6.98 14.34 -8 14 C-5.36 9.38 -2.72 4.76 0 0 Z " fill="#2A285E" transform="translate(190,28)"/>
<path d="M0 0 C0.33 0.99 0.66 1.98 1 3 C0.2884375 4.175625 0.2884375 4.175625 -0.4375 5.375 C-2.14700024 8.24696041 -2.28042368 9.72839042 -2 13 C-3.32 13 -4.64 13 -6 13 C-6.33 14.32 -6.66 15.64 -7 17 C-7.66 17 -8.32 17 -9 17 C-7.60166859 12.93212682 -5.54602384 9.54799403 -3.21875 5.96484375 C-2.01571779 4.0253399 -0.98888894 2.05560709 0 0 Z " fill="#2E2B61" transform="translate(143,72)"/>
<path d="M0 0 C1.65 0 3.3 0 5 0 C3.43358249 4.30764815 1.31663844 8.06171464 -1 12 C-1.66 11.34 -2.32 10.68 -3 10 C-2.690625 9.278125 -2.38125 8.55625 -2.0625 7.8125 C-1.07439461 5.19692691 -0.4712246 2.74881018 0 0 Z " fill="#2B2863" transform="translate(146,40)"/>
<path d="M0 0 C0.66 0 1.32 0 2 0 C0.35821735 4.77609498 -2.26546702 8.79382904 -5 13 C-5.33 12.34 -5.66 11.68 -6 11 C-6.66 10.67 -7.32 10.34 -8 10 C-7.236875 9.278125 -6.47375 8.55625 -5.6875 7.8125 C-2.955914 5.16073022 -2.955914 5.16073022 -1.3125 2.1875 C-0.879375 1.465625 -0.44625 0.74375 0 0 Z " fill="#2B2563" transform="translate(174,56)"/>
<path d="M0 0 C2.06242617 -0.02717692 4.12495703 -0.0464758 6.1875 -0.0625 C7.33605469 -0.07410156 8.48460937 -0.08570313 9.66796875 -0.09765625 C12.59300586 -0.01192832 15.16316291 0.32150977 18 1 C18 1.33 18 1.66 18 2 C12.06 2.33 6.12 2.66 0 3 C0 2.01 0 1.02 0 0 Z " fill="#1F1E71" transform="translate(180,13)"/>
<path d="M0 0 C0.66 0 1.32 0 2 0 C2.33 0.66 2.66 1.32 3 2 C3.99 2 4.98 2 6 2 C6.33 4.64 6.66 7.28 7 10 C2.57320993 8.52440331 2.08567304 6.09942632 0 2 C0 1.34 0 0.68 0 0 Z " fill="#2F2C73" transform="translate(6,25)"/>
<path d="M0 0 C3.64551336 1.21517112 4.36745825 2.78807173 6.1484375 6.078125 C7.29730864 8.67099014 7.72582057 11.18966081 8 14 C7.34 13.67 6.68 13.34 6 13 C6 12.01 6 11.02 6 10 C5.34 9.67 4.68 9.34 4 9 C2.9296875 7.44140625 2.9296875 7.44140625 1.875 5.5625 C1.52179688 4.94503906 1.16859375 4.32757813 0.8046875 3.69140625 C0 2 0 2 0 0 Z " fill="#252060" transform="translate(69,133)"/>
<path d="M0 0 C1.0625 1.875 1.0625 1.875 2 4 C1.67 4.66 1.34 5.32 1 6 C-5.42857143 7.28571429 -5.42857143 7.28571429 -8 6 C-8 4.35 -8 2.7 -8 1 C-7.34 1 -6.68 1 -6 1 C-5.67 2.65 -5.34 4.3 -5 6 C-2.12579877 3.28395285 -2.12579877 3.28395285 0 0 Z " fill="#282559" transform="translate(122,48)"/>
<path d="M0 0 C-1.33250791 3.5875213 -2.830717 6.8364623 -5 10 C-5.66 10 -6.32 10 -7 10 C-6.51020408 3.51020408 -6.51020408 3.51020408 -4.0625 1.0625 C-2 0 -2 0 0 0 Z " fill="#2C2A68" transform="translate(183,44)"/>
<path d="M0 0 C2.44413389 3.08269139 4.33109524 6.28471111 6.1875 9.75 C6.71730469 10.73484375 7.24710937 11.7196875 7.79296875 12.734375 C8.19128906 13.48203125 8.58960937 14.2296875 9 15 C8.01 15.495 8.01 15.495 7 16 C5.82268014 14.0898586 4.65848895 12.17162056 3.5 10.25 C2.8503125 9.18265625 2.200625 8.1153125 1.53125 7.015625 C0 4 0 4 0 0 Z " fill="#252263" transform="translate(107,96)"/>
<path d="M0 0 C3.98595705 3.41653461 5.84656201 7.32916266 8 12 C8.33 12.66 8.66 13.32 9 14 C8.01 14 7.02 14 6 14 C6 13.01 6 12.02 6 11 C5.34 11 4.68 11 4 11 C0 4.5 0 4.5 0 0 Z " fill="#231F5B" transform="translate(35,36)"/>
<path d="M0 0 C0.66 0 1.32 0 2 0 C2 0.99 2 1.98 2 3 C1.34 3 0.68 3 0 3 C-0.4021875 4.1446875 -0.4021875 4.1446875 -0.8125 5.3125 C-1.94424112 7.87380884 -2.91223401 9.19692938 -5 11 C-5.66 10.01 -6.32 9.02 -7 8 C-6.01 8 -5.02 8 -4 8 C-3.71125 7.236875 -3.4225 6.47375 -3.125 5.6875 C-2 3 -2 3 0 0 Z " fill="#1F1A48" transform="translate(123,143)"/>
<path d="M0 0 C1.98 0.66 3.96 1.32 6 2 C6.33 4.64 6.66 7.28 7 10 C6.67 9.34 6.34 8.68 6 8 C5.34 8 4.68 8 4 8 C2.68 5.36 1.36 2.72 0 0 Z " fill="#231E64" transform="translate(69,72)"/>
<path d="M0 0 C0.99 0 1.98 0 3 0 C4.98 3.63 6.96 7.26 9 11 C8.01 11 7.02 11 6 11 C4.02 7.37 2.04 3.74 0 0 Z " fill="#232163" transform="translate(99,63)"/>
<path d="M0 0 C1.98 0.99 1.98 0.99 4 2 C3.34 2 2.68 2 2 2 C3.65 4.97 5.3 7.94 7 11 C6.01 11 5.02 11 4 11 C3.67 9.68 3.34 8.36 3 7 C2.34 7 1.68 7 1 7 C0.67 4.69 0.34 2.38 0 0 Z " fill="#25245C" transform="translate(0,13)"/>
<path d="M0 0 C2.30465234 2.96213574 4.27590448 6.02152757 6.1875 9.25 C6.71730469 10.14203125 7.24710937 11.0340625 7.79296875 11.953125 C8.19128906 12.62859375 8.58960937 13.3040625 9 14 C7.1015625 13.6796875 7.1015625 13.6796875 5 13 C3.375 10.125 3.375 10.125 2 7 C1.34 6.01 0.68 5.02 0 4 C0 2.68 0 1.36 0 0 Z " fill="#282757" transform="translate(97,79)"/>
<path d="M0 0 C0.66 0 1.32 0 2 0 C2 0.99 2 1.98 2 3 C1.34 3 0.68 3 0 3 C-0.268125 3.94875 -0.53625 4.8975 -0.8125 5.875 C-2 9 -2 9 -5 11 C-4.32902328 6.80639551 -2.1441606 3.59665648 0 0 Z " fill="#262363" transform="translate(141,112)"/>
<path d="M0 0 C3.08089673 2.77280706 4.68775452 5.06326356 6 9 C5.01 9.495 5.01 9.495 4 10 C0 4.5 0 4.5 0 0 Z " fill="#211F51" transform="translate(64,123)"/>
<path d="M0 0 C0.66 0 1.32 0 2 0 C0.79157144 4.43090471 -0.51668565 6.98112756 -4 10 C-3.43697042 6.05879291 -2.3208055 3.2491277 0 0 Z " fill="#1F1C60" transform="translate(147,102)"/>
<path d="M0 0 C0.99 0 1.98 0 3 0 C7 4.22857143 7 4.22857143 7 8 C3.70851757 6.86500606 3.0040131 6.00716624 1.25 2.875 C0.8375 1.92625 0.425 0.9775 0 0 Z " fill="#23205F" transform="translate(64,63)"/>
<path d="M0 0 C3.0927781 2.06185207 3.68076198 2.90369802 5.1875 6.125 C5.53167969 6.84945312 5.87585938 7.57390625 6.23046875 8.3203125 C6.61138672 9.15175781 6.61138672 9.15175781 7 10 C6.01 10 5.02 10 4 10 C1.61685817 6.79192446 0.56231391 3.93619738 0 0 Z " fill="#29275B" transform="translate(60,79)"/>
<path d="M0 0 C0.66 0 1.32 0 2 0 C1.34 1.65 0.68 3.3 0 5 C-0.66 5 -1.32 5 -2 5 C-2.66 6.65 -3.32 8.3 -4 10 C-4.99 9.67 -5.98 9.34 -7 9 C-6.5875 8.62875 -6.175 8.2575 -5.75 7.875 C-3.80047389 5.89630058 -3.80047389 5.89630058 -1.9375 2.8125 C-0.9784375 1.4203125 -0.9784375 1.4203125 0 0 Z " fill="#29295E" transform="translate(178,13)"/>
<path d="M0 0 C0.66 0.66 1.32 1.32 2 2 C0.68 4.31 -0.64 6.62 -2 9 C-2.66 9 -3.32 9 -4 9 C-3.35455571 5.51460083 -1.89865603 2.97180943 0 0 Z " fill="#242163" transform="translate(134,124)"/>
<path d="M0 0 C0.66 0 1.32 0 2 0 C0.66511872 3.59391114 -0.96022723 6.75490696 -3 10 C-3.75 8.375 -3.75 8.375 -4 6 C-2.1875 2.75 -2.1875 2.75 0 0 Z " fill="#211E57" transform="translate(153,92)"/>
<path d="M0 0 C4.42857143 5.14285714 4.42857143 5.14285714 5 9 C4.34 9 3.68 9 3 9 C3 8.34 3 7.68 3 7 C1.68 6.34 0.36 5.68 -1 5 C-0.67 3.35 -0.34 1.7 0 0 Z " fill="#2D2965" transform="translate(88,64)"/>
<path d="M0 0 C1.32 0.33 2.64 0.66 4 1 C4.33 2.98 4.66 4.96 5 7 C4.01 6.67 3.02 6.34 2 6 C0.8125 2.9375 0.8125 2.9375 0 0 Z " fill="#2E2B67" transform="translate(61,56)"/>
<path d="M0 0 C2.64 0 5.28 0 8 0 C7.34 1.32 6.68 2.64 6 4 C4.35 4 2.7 4 1 4 C0.67 2.68 0.34 1.36 0 0 Z " fill="#353380" transform="translate(113,54)"/>
<path d="M0 0 C1.875 0.625 1.875 0.625 4 2 C5.25 5.125 5.25 5.125 6 8 C5.01 8.495 5.01 8.495 4 9 C0 2.25 0 2.25 0 0 Z " fill="#262163" transform="translate(33,72)"/>
<path d="M0 0 C3 1 3 1 4.6875 4.0625 C5.120625 5.031875 5.55375 6.00125 6 7 C5.34 7.66 4.68 8.32 4 9 C0 2.25 0 2.25 0 0 Z " fill="#252565" transform="translate(91,48)"/>
<path d="M0 0 C1.32 0.33 2.64 0.66 4 1 C3.67 1.66 3.34 2.32 3 3 C3.66 3 4.32 3 5 3 C4.67 4.32 4.34 5.64 4 7 C0 2.25 0 2.25 0 0 Z " fill="#2C2A62" transform="translate(49,36)"/>
<path d="M0 0 C1.32 0.66 2.64 1.32 4 2 C3.67 3.32 3.34 4.64 3 6 C1.68 6.33 0.36 6.66 -1 7 C-0.67 4.69 -0.34 2.38 0 0 Z " fill="#292768" transform="translate(162,14)"/>
<path d="M0 0 C0.66 0 1.32 0 2 0 C3.32 2.64 4.64 5.28 6 8 C5.01 8.495 5.01 8.495 4 9 C0 2.25 0 2.25 0 0 Z " fill="#221F6A" transform="translate(88,165)"/>
<path d="M0 0 C3.05882701 1.52941351 3.68951234 3.94219546 5 7 C4.67 7.66 4.34 8.32 4 9 C1.74754119 6.31158141 0.11786042 4.35358125 -1 1 C-0.67 0.67 -0.34 0.34 0 0 Z " fill="#262463" transform="translate(102,124)"/>
<path d="M0 0 C0.66 0.33 1.32 0.66 2 1 C2 1.66 2 2.32 2 3 C2.639375 3.268125 3.27875 3.53625 3.9375 3.8125 C6 5 6 5 7 8 C6.34 8 5.68 8 5 8 C4.67 7.34 4.34 6.68 4 6 C3.01 5.67 2.02 5.34 1 5 C-0.1875 2.9375 -0.1875 2.9375 -1 1 C-0.67 0.67 -0.34 0.34 0 0 Z " fill="#2C296D" transform="translate(87,99)"/>
<path d="M0 0 C0.99 0 1.98 0 3 0 C5.10770759 2.88834003 6 4.38462395 6 8 C5.34 8 4.68 8 4 8 C2.68 5.36 1.36 2.72 0 0 Z " fill="#1E1C58" transform="translate(48,98)"/>
<path d="M0 0 C0.99 0 1.98 0 3 0 C4.75 2.3125 4.75 2.3125 6 5 C5.67 5.99 5.34 6.98 5 8 C2.74754119 5.31158141 1.11786042 3.35358125 0 0 Z " fill="#21205A" transform="translate(38,81)"/>
<path d="M0 0 C2.31 0.33 4.62 0.66 7 1 C6.01 2.32 5.02 3.64 4 5 C3.01 4.67 2.02 4.34 1 4 C0.3125 1.9375 0.3125 1.9375 0 0 Z " fill="#2C2C5E" transform="translate(89,44)"/>
<path d="M0 0 C0.66 0.33 1.32 0.66 2 1 C2 3.31 2 5.62 2 8 C0.68 7.34 -0.64 6.68 -2 6 C-2 5.34 -2 4.68 -2 4 C-1.34 4 -0.68 4 0 4 C0 2.68 0 1.36 0 0 Z " fill="#2D2A6E" transform="translate(108,160)"/>
<path d="M0 0 C3 1 3 1 5 4 C4.625 6.1875 4.625 6.1875 4 8 C2.3372974 5.32521756 1.00016187 3.0004856 0 0 Z " fill="#181764" transform="translate(43,89)"/>
<path d="M0 0 C3.40424844 1.13474948 4.21653709 1.96811304 6 5 C5.67 5.99 5.34 6.98 5 8 C2.74754119 5.31158141 1.11786042 3.35358125 0 0 Z " fill="#1E1C49" transform="translate(107,76)"/>
<path d="" fill="#000055" transform="translate(0,0)"/>
</svg>
